<svg width="17" height="16" viewBox="0 0 17 16" fill="none" xmlns="http://www.w3.org/2000/svg">
<path d="M8.01925 2.66675C8.38744 2.66675 8.68591 2.96522 8.68591 3.33341V7.33342H12.6859C13.0541 7.33342 13.3526 7.63189 13.3526 8.00008C13.3526 8.36827 13.0541 8.66675 12.6859 8.66675H8.68591V12.6667C8.68591 13.0349 8.38744 13.3334 8.01925 13.3334C7.65106 13.3334 7.35258 13.0349 7.35258 12.6667V8.66675H3.35258C2.98439 8.66675 2.68591 8.36827 2.68591 8.00008C2.68591 7.63189 2.98439 7.33342 3.35258 7.33342H7.35258V3.33341C7.35258 2.96522 7.65106 2.66675 8.01925 2.66675Z" fill="black"/>
</svg>
