<svg width="16" height="16" viewBox="0 0 16 16" fill="none" xmlns="http://www.w3.org/2000/svg">
<path d="M7.54299 3.39283C7.79333 3.64317 7.79333 4.04904 7.54299 4.29938L4.79114 7.05123H12.2179C12.572 7.05123 12.8589 7.33823 12.8589 7.69226C12.8589 8.04629 12.572 8.33328 12.2179 8.33328H4.79114L7.54299 11.0851C7.79333 11.3355 7.79333 11.7413 7.54299 11.9917C7.29266 12.242 6.88678 12.242 6.63644 11.9917L2.79029 8.14553C2.67008 8.02531 2.60254 7.86227 2.60254 7.69226C2.60254 7.52225 2.67008 7.3592 2.79029 7.23898L6.63644 3.39283C6.88678 3.14249 7.29266 3.14249 7.54299 3.39283Z" fill="black"/>
</svg>
