<svg width="16" height="17" viewBox="0 0 16 17" fill="none" xmlns="http://www.w3.org/2000/svg">
<path d="M2.66675 3.16659C2.66675 2.43021 3.2637 1.83325 4.00008 1.83325H12.0001C12.7365 1.83325 13.3334 2.43021 13.3334 3.16659V14.4999C13.3334 14.7496 13.1938 14.9784 12.9718 15.0927C12.7498 15.207 12.4825 15.1876 12.2793 15.0424L8.00008 11.9859L3.72091 15.0424C3.5177 15.1876 3.25041 15.207 3.02836 15.0927C2.80631 14.9784 2.66675 14.7496 2.66675 14.4999V3.16659ZM12.0001 3.16659L4.00008 3.16659V13.2045L7.61259 10.6241C7.84439 10.4585 8.15577 10.4585 8.38757 10.6241L12.0001 13.2045V3.16659Z" fill="black"/>
</svg>
