<svg width="16" height="16" viewBox="0 0 16 16" fill="none" xmlns="http://www.w3.org/2000/svg">
<path fill-rule="evenodd" clip-rule="evenodd" d="M3.33336 3.19844C4.34474 2.99061 5.11359 2.97799 5.75069 3.05763C6.49668 3.15088 7.09586 3.37321 7.76596 3.6245L7.78597 3.632C8.44396 3.87877 9.1726 4.15204 10.084 4.26596C10.82 4.35796 11.6542 4.34451 12.6667 4.16019V10.1355C11.6553 10.3433 10.8865 10.3559 10.2494 10.2763C9.50341 10.183 8.90423 9.96068 8.23413 9.70939L8.21413 9.70189C7.55613 9.45512 6.82749 9.18185 5.91607 9.06793C5.18009 8.97593 4.34589 8.98939 3.33337 9.1737L3.33336 3.19844ZM13.1717 2.68685C11.9049 3.00354 10.9885 3.03532 10.2494 2.94293C9.50341 2.84968 8.90423 2.62735 8.23413 2.37606L8.21412 2.36856C7.55613 2.12179 6.82749 1.84852 5.91607 1.73459C4.99157 1.61903 3.91207 1.66987 2.51882 2.01674C2.22178 2.084 2 2.34958 2 2.66696V14.0003C2 14.3685 2.29848 14.667 2.66667 14.667C3.03486 14.667 3.33333 14.3685 3.33333 14.0003V10.5318C4.34473 10.3239 5.11358 10.3113 5.75069 10.391C6.49668 10.4842 7.09586 10.7065 7.76596 10.9578L7.78596 10.9653C8.44395 11.2121 9.1726 11.4854 10.084 11.5993C11.0116 11.7152 12.0951 11.6637 13.4951 11.3137C13.7918 11.2395 14 10.9729 14 10.6669V3.33361C14 3.12832 13.9055 2.93448 13.7437 2.80814C13.5818 2.6818 13.3708 2.63706 13.1717 2.68685Z" fill="black"/>
</svg>
