<svg width="24" height="24" viewBox="0 0 24 24" fill="none" xmlns="http://www.w3.org/2000/svg">
<path d="M4.03796 0.564396V7.44394C4.03796 7.7509 4.28173 7.99466 4.58869 7.99466H11.4682C11.7752 7.99466 12.019 8.23843 12.019 8.54539V15.4249C12.019 15.7319 12.2627 15.9757 12.5697 15.9757H19.4492C19.7562 15.9757 20 15.7319 20 15.4249V0.564396C20 0.257435 19.7562 0.0136719 19.4492 0.0136719H4.58869C4.28173 0.0136719 4.03796 0.257435 4.03796 0.564396Z" fill="#7DFA86"/>
<path d="M11.4685 23.939H4.58893C4.28197 23.939 4.03821 23.6952 4.03821 23.3883V16.5087C4.03821 16.2018 4.28197 15.958 4.58893 15.958H11.4685C11.7754 15.958 12.0192 16.2018 12.0192 16.5087V23.3883C12.0102 23.6952 11.7664 23.939 11.4685 23.939Z" fill="#7DFA86"/>
</svg>
