<svg width="24" height="24" viewBox="0 0 24 24" fill="none" xmlns="http://www.w3.org/2000/svg">
<path d="M5.03809 1.99417V8.01166C5.03809 8.28015 5.2513 8.49337 5.5198 8.49337H11.5373C11.8058 8.49337 12.019 8.70659 12.019 8.97509V14.9926C12.019 15.2611 12.2322 15.4743 12.5007 15.4743H18.5182C18.7867 15.4743 18.9999 15.2611 18.9999 14.9926V1.99417C18.9999 1.72567 18.7867 1.51245 18.5182 1.51245H5.5198C5.2513 1.51245 5.03809 1.72567 5.03809 1.99417Z" fill="#7DFA86"/>
<path d="M11.5373 22.4394H5.5198C5.2513 22.4394 5.03809 22.2262 5.03809 21.9577V15.9402C5.03809 15.6717 5.2513 15.4585 5.5198 15.4585H11.5373C11.8058 15.4585 12.019 15.6717 12.019 15.9402V21.9577C12.0111 22.2262 11.7979 22.4394 11.5373 22.4394Z" fill="#7DFA86"/>
</svg>
