<svg width="16" height="17" viewBox="0 0 16 17" fill="none" xmlns="http://www.w3.org/2000/svg">
<path d="M1.33325 4.50008C1.33325 3.7637 1.93021 3.16675 2.66659 3.16675H13.3333C14.0696 3.16675 14.6666 3.7637 14.6666 4.50008V11.8334C14.6666 12.5698 14.0696 13.1667 13.3333 13.1667H10.2761L8.47132 14.9715C8.21097 15.2318 7.78886 15.2318 7.52851 14.9715L5.72378 13.1667H2.66659C1.93021 13.1667 1.33325 12.5698 1.33325 11.8334V4.50008ZM13.3333 4.50008H2.66659V11.8334H5.99992C6.17673 11.8334 6.3463 11.9037 6.47132 12.0287L7.99992 13.5573L9.52851 12.0287C9.65354 11.9037 9.82311 11.8334 9.99992 11.8334H13.3333V4.50008ZM3.99992 6.83341C3.99992 6.46523 4.2984 6.16675 4.66659 6.16675H11.3333C11.7014 6.16675 11.9999 6.46523 11.9999 6.83341C11.9999 7.2016 11.7014 7.50008 11.3333 7.50008H4.66659C4.2984 7.50008 3.99992 7.2016 3.99992 6.83341ZM3.99992 9.50008C3.99992 9.13189 4.2984 8.83341 4.66659 8.83341H8.66659C9.03478 8.83341 9.33325 9.13189 9.33325 9.50008C9.33325 9.86827 9.03478 10.1667 8.66659 10.1667H4.66659C4.2984 10.1667 3.99992 9.86827 3.99992 9.50008Z" fill="black"/>
</svg>
