<svg width="32" height="32" viewBox="0 0 32 32" fill="none" xmlns="http://www.w3.org/2000/svg">
<rect x="0.5" y="0.5" width="31" height="31" rx="15.5" fill="#464545"/>
<rect x="0.5" y="0.5" width="31" height="31" rx="15.5" stroke="#4E4E4E"/>
<path d="M10.7666 8.45469C10.7666 8.33193 10.8661 8.23242 10.9889 8.23242H16.101V13.5668H10.9889C10.8661 13.5668 10.7666 13.4672 10.7666 13.3445V8.45469Z" fill="white"/>
<rect x="10.7667" y="18.9011" width="5.33434" height="5.33434" rx="0.222264" fill="white"/>
<path d="M16.0964 8.23242H21.2085C21.3312 8.23242 21.4307 8.33193 21.4307 8.45469V13.5668H16.0964V8.23242Z" fill="white"/>
<path d="M16.0964 13.5681H21.4307V18.6802C21.4307 18.8029 21.3312 18.9025 21.2085 18.9025H16.3187C16.1959 18.9025 16.0964 18.8029 16.0964 18.6802V13.5681Z" fill="white"/>
</svg>
