<svg width="16" height="16" viewBox="0 0 16 16" fill="none" xmlns="http://www.w3.org/2000/svg">
<path d="M7.99992 1.33325C8.25244 1.33325 8.48328 1.47592 8.59621 1.70178L14.5962 13.7018C14.7112 13.9318 14.6837 14.2075 14.5254 14.4102C14.3671 14.6129 14.1064 14.7065 13.8553 14.6507L7.99992 13.3495L2.14454 14.6507C1.89349 14.7065 1.63273 14.6129 1.47445 14.4102C1.31618 14.2075 1.28862 13.9318 1.40364 13.7018L7.40364 1.70178C7.51657 1.47592 7.74741 1.33325 7.99992 1.33325ZM8.66659 12.1318L12.7773 13.0453L8.66659 4.82396V12.1318ZM7.33326 4.82396L3.2226 13.0453L7.33326 12.1318V4.82396Z" fill="black"/>
</svg>
