<svg width="17" height="16" viewBox="0 0 17 16" fill="none" xmlns="http://www.w3.org/2000/svg">
<path d="M7.56701 1.52876C7.82736 1.26841 8.24947 1.26841 8.50982 1.52876L10.5098 3.52876C10.7702 3.78911 10.7702 4.21122 10.5098 4.47157C10.2495 4.73192 9.82736 4.73192 9.56701 4.47157L8.70508 3.60964V10.0002C8.70508 10.3684 8.4066 10.6668 8.03841 10.6668C7.67022 10.6668 7.37174 10.3684 7.37174 10.0002V3.60964L6.50982 4.47157C6.24947 4.73192 5.82736 4.73192 5.56701 4.47157C5.30666 4.21122 5.30666 3.78911 5.56701 3.52876L7.56701 1.52876ZM2.70508 7.3335C2.70508 6.59712 3.30203 6.00016 4.03841 6.00016H5.37174C5.73993 6.00016 6.03841 6.29864 6.03841 6.66683C6.03841 7.03502 5.73993 7.3335 5.37174 7.3335H4.03841V13.3335H12.0384V7.3335H10.7051C10.3369 7.3335 10.0384 7.03502 10.0384 6.66683C10.0384 6.29864 10.3369 6.00016 10.7051 6.00016H12.0384C12.7748 6.00016 13.3717 6.59712 13.3717 7.3335V13.3335C13.3717 14.0699 12.7748 14.6668 12.0384 14.6668H4.03841C3.30203 14.6668 2.70508 14.0699 2.70508 13.3335V7.3335Z" fill="black"/>
</svg>
