<svg width="16" height="16" viewBox="0 0 16 16" fill="none" xmlns="http://www.w3.org/2000/svg">
<path d="M8.0013 2.66699C8.36949 2.66699 8.66797 2.96547 8.66797 3.33366V7.33366H12.668C13.0362 7.33366 13.3346 7.63214 13.3346 8.00033C13.3346 8.36852 13.0362 8.66699 12.668 8.66699H8.66797V12.667C8.66797 13.0352 8.36949 13.3337 8.0013 13.3337C7.63311 13.3337 7.33464 13.0352 7.33464 12.667V8.66699H3.33464C2.96645 8.66699 2.66797 8.36852 2.66797 8.00033C2.66797 7.63214 2.96645 7.33366 3.33464 7.33366H7.33464V3.33366C7.33464 2.96547 7.63311 2.66699 8.0013 2.66699Z" fill="black"/>
</svg>
