<svg width="16" height="16" viewBox="0 0 16 16" fill="none" xmlns="http://www.w3.org/2000/svg">
<path d="M8.19656 3.52827C8.45691 3.26792 8.87902 3.26792 9.13937 3.52827L13.1394 7.52827C13.2644 7.65329 13.3346 7.82286 13.3346 7.99967C13.3346 8.17649 13.2644 8.34606 13.1394 8.47108L9.13937 12.4711C8.87902 12.7314 8.45691 12.7314 8.19656 12.4711C7.93621 12.2107 7.93621 11.7886 8.19656 11.5283L11.0585 8.66634L3.33464 8.66634C2.96645 8.66634 2.66797 8.36787 2.66797 7.99968C2.66797 7.63149 2.96645 7.33301 3.33464 7.33301H11.0585L8.19656 4.47108C7.93621 4.21073 7.93621 3.78862 8.19656 3.52827Z" fill="black"/>
</svg>
