<svg width="16" height="16" viewBox="0 0 16 16" fill="none" xmlns="http://www.w3.org/2000/svg">
<path d="M8.19656 3.52876C8.45691 3.26841 8.87902 3.26841 9.13937 3.52876L13.1394 7.52876C13.2644 7.65378 13.3346 7.82335 13.3346 8.00016C13.3346 8.17697 13.2644 8.34654 13.1394 8.47157L9.13937 12.4716C8.87902 12.7319 8.45691 12.7319 8.19656 12.4716C7.93621 12.2112 7.93621 11.7891 8.19656 11.5288L11.0585 8.66683L3.33464 8.66683C2.96645 8.66683 2.66797 8.36835 2.66797 8.00016C2.66797 7.63197 2.96645 7.3335 3.33464 7.3335H11.0585L8.19656 4.47157C7.93621 4.21122 7.93621 3.78911 8.19656 3.52876Z" fill="white"/>
</svg>
