<svg width="1440" height="172" viewBox="0 0 1440 172" fill="none" xmlns="http://www.w3.org/2000/svg">
<rect y="73" width="96" height="50" fill="#7DFA86"/>
<rect y="122" width="192" height="50" fill="#7DFA86"/>
<rect x="288" y="122" width="192" height="50" fill="#7DFA86"/>
<rect x="576" y="122" width="192" height="50" fill="#7DFA86"/>
<rect x="864" y="122" width="192" height="50" fill="#7DFA86"/>
<rect x="1152" y="122" width="192" height="50" fill="#7DFA86"/>
<rect y="24" width="48" height="50" fill="#7DFA86"/>
<rect width="24" height="25" fill="#7DFA86"/>
<rect x="144" width="24" height="25" fill="#7DFA86"/>
<rect x="288" width="24" height="25" fill="#7DFA86"/>
<rect x="432" width="24" height="25" fill="#7DFA86"/>
<rect x="576" width="24" height="25" fill="#7DFA86"/>
<rect x="720" width="24" height="25" fill="#7DFA86"/>
<rect x="864" width="24" height="25" fill="#7DFA86"/>
<rect x="1008" width="24" height="25" fill="#7DFA86"/>
<rect x="1152" width="24" height="25" fill="#7DFA86"/>
<rect x="1296" width="24" height="25" fill="#7DFA86"/>
<rect x="48" width="24" height="25" fill="#7DFA86"/>
<rect x="192" width="24" height="25" fill="#7DFA86"/>
<rect x="336" width="24" height="25" fill="#7DFA86"/>
<rect x="480" width="24" height="25" fill="#7DFA86"/>
<rect x="624" width="24" height="25" fill="#7DFA86"/>
<rect x="768" width="24" height="25" fill="#7DFA86"/>
<rect x="912" width="24" height="25" fill="#7DFA86"/>
<rect x="1056" width="24" height="25" fill="#7DFA86"/>
<rect x="1200" width="24" height="25" fill="#7DFA86"/>
<rect x="1344" width="24" height="25" fill="#7DFA86"/>
<rect x="96" width="24" height="25" fill="#7DFA86"/>
<rect x="240" width="24" height="25" fill="#7DFA86"/>
<rect x="384" width="24" height="25" fill="#7DFA86"/>
<rect x="528" width="24" height="25" fill="#7DFA86"/>
<rect x="672" width="24" height="25" fill="#7DFA86"/>
<rect x="816" width="24" height="25" fill="#7DFA86"/>
<rect x="960" width="24" height="25" fill="#7DFA86"/>
<rect x="1104" width="24" height="25" fill="#7DFA86"/>
<rect x="1248" width="24" height="25" fill="#7DFA86"/>
<rect x="1392" width="24" height="25" fill="#7DFA86"/>
<rect x="384" y="24" width="48" height="50" fill="#7DFA86"/>
<rect x="768" y="24" width="48" height="50" fill="#7DFA86"/>
<rect x="1152" y="24" width="48" height="50" fill="#7DFA86"/>
<rect x="96" y="24" width="48" height="50" fill="#7DFA86"/>
<rect x="480" y="24" width="48" height="50" fill="#7DFA86"/>
<rect x="864" y="24" width="48" height="50" fill="#7DFA86"/>
<rect x="1248" y="24" width="48" height="50" fill="#7DFA86"/>
<rect x="192" y="24" width="48" height="50" fill="#7DFA86"/>
<rect x="576" y="24" width="48" height="50" fill="#7DFA86"/>
<rect x="960" y="24" width="48" height="50" fill="#7DFA86"/>
<rect x="1344" y="24" width="48" height="50" fill="#7DFA86"/>
<rect x="288" y="24" width="48" height="50" fill="#7DFA86"/>
<rect x="672" y="24" width="48" height="50" fill="#7DFA86"/>
<rect x="1056" y="24" width="48" height="50" fill="#7DFA86"/>
<rect x="192" y="73" width="96" height="50" fill="#7DFA86"/>
<rect x="384" y="73" width="96" height="50" fill="#7DFA86"/>
<rect x="576" y="73" width="96" height="50" fill="#7DFA86"/>
<rect x="768" y="73" width="96" height="50" fill="#7DFA86"/>
<rect x="960" y="73" width="96" height="50" fill="#7DFA86"/>
<rect x="1152" y="73" width="96" height="50" fill="#7DFA86"/>
<rect x="1344" y="73" width="96" height="50" fill="#7DFA86"/>
</svg>
