<svg width="36" height="36" viewBox="0 0 36 36" fill="none" xmlns="http://www.w3.org/2000/svg">
<g clip-path="url(#clip0_259_17095)">
<path d="M36 18C36 27.9405 27.9405 36 18 36C8.0595 36 0 27.9405 0 18C0 8.058 8.0595 0 18 0C27.942 0 36 8.058 36 18ZM21.5505 20.439C21.3716 20.4384 21.1948 20.4775 21.0327 20.5535C20.8706 20.6296 20.7272 20.7407 20.6127 20.879C20.4983 21.0173 20.4155 21.1793 20.3705 21.3534C20.3254 21.5276 20.3191 21.7096 20.352 21.8865C20.4585 22.476 21.012 22.8795 21.612 22.8795H23.4975L24.591 22.7265C22.842 25.2915 19.806 26.4735 16.4835 25.9515C13.7805 25.5285 11.4585 23.6985 10.479 21.144C8.2545 15.3465 12.489 9.81 18.009 9.81C20.883 9.81 23.406 11.493 24.852 13.527C25.2675 14.112 25.9965 14.283 26.5515 13.899C26.802 13.7271 26.9781 13.4656 27.0439 13.1678C27.1096 12.8699 27.0602 12.558 26.9055 12.2955H26.9145C25.8924 10.6954 24.4578 9.40052 22.7618 8.54709C21.0658 7.69366 19.171 7.31328 17.277 7.446C12.015 7.8 7.7565 12.1065 7.452 17.3715C7.1025 23.5005 11.9625 28.503 18.0075 28.503C19.5162 28.5089 21.0083 28.1885 22.3815 27.5637C23.7548 26.939 24.9767 26.0247 25.9635 24.8835L25.734 26.166V27.3255C25.734 27.9255 26.1375 28.4805 26.727 28.5855C26.9033 28.6186 27.0848 28.6124 27.2584 28.5673C27.4321 28.5223 27.5937 28.4396 27.7317 28.325C27.8698 28.2104 27.9809 28.0669 28.0572 27.9045C28.1334 27.7421 28.173 27.5649 28.173 27.3855V20.4405L21.5505 20.439Z" fill="white"/>
</g>
<defs>
<clipPath id="clip0_259_17095">
<rect width="36" height="36" fill="white"/>
</clipPath>
</defs>
</svg>
