<svg width="175" height="38" viewBox="0 0 175 38" fill="none" xmlns="http://www.w3.org/2000/svg">
<path d="M2.95145 6.64071V11.3138H3.03344C3.77131 9.59217 4.96008 8.28041 6.64077 7.33759C8.28047 6.39476 10.2071 5.94385 12.2977 5.94385C14.2654 5.94385 15.9871 6.31277 17.4628 7.00964C18.9385 7.70651 20.1273 8.64935 21.1111 9.83813C22.0949 11.0269 22.7918 12.4206 23.2837 14.0194C23.7346 15.6181 23.9806 17.2578 23.9806 19.0204C23.9806 20.7831 23.7346 22.4228 23.2837 24.0215C22.8328 25.6202 22.0949 26.973 21.1111 28.2027C20.1273 29.3915 18.9385 30.3344 17.4628 31.0312C15.9871 31.7281 14.2654 32.056 12.2977 32.056C11.3549 32.056 10.4121 31.933 9.46925 31.7281C8.52643 31.5231 7.66559 31.1542 6.84574 30.7033C6.02589 30.2524 5.32902 29.6785 4.71413 29.0226C4.09924 28.3667 3.60734 27.5878 3.2794 26.686H3.19741V37.9999H0V6.68171H2.95145V6.64071ZM20.3323 15.2081C20.0043 13.9374 19.5124 12.8306 18.8155 11.8468C18.1187 10.8629 17.2578 10.0431 16.192 9.42821C15.1262 8.81332 13.8145 8.48537 12.3387 8.48537C10.5761 8.48537 9.14132 8.77232 7.95253 9.34622C6.76375 9.92011 5.82093 10.699 5.12406 11.6418C4.42718 12.5846 3.93528 13.7324 3.64833 15.0032C3.36138 16.2739 3.2384 17.6267 3.2384 19.0204C3.2384 20.2912 3.40237 21.562 3.73031 22.8327C4.05825 24.1035 4.55016 25.2103 5.28803 26.1941C6.02589 27.1779 6.92772 27.9978 8.11651 28.6127C9.26429 29.2275 10.699 29.5555 12.3797 29.5555C13.8964 29.5555 15.1672 29.2275 16.233 28.6127C17.2988 27.9978 18.2006 27.1779 18.8565 26.1941C19.5534 25.2103 20.0453 24.0625 20.3732 22.8327C20.7012 21.562 20.8652 20.2912 20.8652 19.0204C20.7832 17.7087 20.6192 16.4379 20.3323 15.2081Z" fill="#231F20"/>
<path d="M30.7852 6.64074V12.4207H30.8672C31.6871 10.412 32.9168 8.85434 34.5975 7.78854C36.2782 6.72273 38.3278 6.18983 40.6644 6.31281V9.34624C39.2297 9.26426 37.9179 9.46922 36.7291 9.87914C35.5403 10.3301 34.5565 10.904 33.6957 11.7238C32.8348 12.5027 32.179 13.4865 31.728 14.5523C31.2771 15.6591 31.0312 16.8479 31.0312 18.1596V31.3182H27.8748V6.64074H30.7852Z" fill="#231F20"/>
<path d="M59.0291 7.00964C60.5459 7.70651 61.8576 8.64935 62.8824 9.83813C63.9072 11.0269 64.7271 12.3797 65.26 13.9784C65.7929 15.5771 66.0798 17.2578 66.0798 19.0204C66.0798 20.8241 65.7929 22.5048 65.26 24.0625C64.7271 25.6612 63.9482 27.014 62.8824 28.2027C61.8576 29.3915 60.5459 30.3343 59.0291 30.9902C57.5124 31.6871 55.7497 32.015 53.7821 32.015C51.8145 32.015 50.0518 31.6871 48.5351 30.9902C47.0184 30.2933 45.7066 29.3915 44.6818 28.2027C43.657 27.014 42.8371 25.6612 42.3042 24.0625C41.7713 22.4638 41.4844 20.7831 41.4844 19.0204C41.4844 17.2168 41.7713 15.5361 42.3042 13.9784C42.8371 12.3797 43.616 11.0269 44.6818 9.83813C45.7066 8.64935 47.0184 7.70651 48.5351 7.00964C50.0518 6.31277 51.8145 5.94385 53.7821 5.94385C55.7497 5.94385 57.5124 6.27178 59.0291 7.00964ZM49.8058 9.38721C48.6581 10.0021 47.7152 10.7809 46.9774 11.7648C46.2395 12.7486 45.6656 13.8964 45.2557 15.1262C44.8867 16.3969 44.6818 17.6677 44.6818 18.9794C44.6818 20.2912 44.8867 21.562 45.2557 22.8327C45.6246 24.1035 46.1985 25.2103 46.9774 26.1941C47.7152 27.1779 48.699 27.9978 49.8058 28.5717C50.9536 29.1866 52.2654 29.4735 53.7821 29.4735C55.2988 29.4735 56.6106 29.1866 57.7584 28.5717C58.9062 27.9568 59.849 27.1779 60.5869 26.1941C61.3247 25.2103 61.8986 24.0625 62.3085 22.8327C62.6775 21.562 62.8824 20.2912 62.8824 18.9794C62.8824 17.6677 62.6775 16.3969 62.3085 15.1262C61.9396 13.8554 61.3657 12.7486 60.5869 11.7648C59.849 10.7809 58.8652 9.9611 57.7584 9.38721C56.6106 8.77232 55.2988 8.48537 53.7821 8.48537C52.2654 8.48537 50.9536 8.77232 49.8058 9.38721Z" fill="#231F20"/>
<path d="M73.1305 23.2017C73.4584 24.3494 73.9503 25.4153 74.6472 26.3171C75.3441 27.2599 76.2459 27.9978 77.3117 28.6127C78.3775 29.2276 79.6893 29.5145 81.165 29.5145C83.4606 29.5145 85.3052 28.9406 86.617 27.7928C87.9288 26.645 88.8306 25.1283 89.3225 23.2017H92.4789C91.823 25.9891 90.5933 28.1618 88.7896 29.7195C86.9859 31.2362 84.4444 32.015 81.165 32.015C79.1154 32.015 77.3527 31.6871 75.877 30.9902C74.4013 30.2933 73.1715 29.3505 72.2287 28.1618C71.2858 26.973 70.589 25.5792 70.138 23.9805C69.6871 22.3818 69.4412 20.7421 69.4412 18.9794C69.4412 17.3397 69.6871 15.741 70.138 14.1833C70.589 12.6256 71.2858 11.2319 72.2287 10.0021C73.1715 8.77232 74.4013 7.7885 75.877 7.05064C77.3527 6.31277 79.1564 5.94385 81.165 5.94385C83.2556 5.94385 85.0183 6.35377 86.494 7.13263C87.9697 7.91148 89.1585 8.97729 90.1014 10.2481C91.0032 11.5598 91.7001 13.0355 92.069 14.7162C92.4789 16.3969 92.6429 18.0776 92.5609 19.7993H72.5976C72.6386 20.9061 72.8025 22.0129 73.1305 23.2017ZM88.8306 13.9784C88.4617 12.9126 87.8878 12.0107 87.1909 11.1909C86.494 10.371 85.6332 9.71515 84.6084 9.22324C83.5836 8.73133 82.4768 8.48537 81.206 8.48537C79.8942 8.48537 78.7465 8.73133 77.7216 9.22324C76.6968 9.71515 75.877 10.371 75.1391 11.1909C74.4422 12.0107 73.8684 12.9535 73.4584 14.0194C73.0485 15.0852 72.7616 16.192 72.6386 17.2987H89.4455C89.4045 16.11 89.1995 15.0442 88.8306 13.9784Z" fill="#231F20"/>
<path d="M99.8165 6.64081V10.822H99.9804C100.8 9.30533 101.907 8.07555 103.26 7.2147C104.613 6.35386 106.334 5.90295 108.466 5.90295C110.188 5.90295 111.745 6.31288 113.139 7.09173C114.533 7.87059 115.476 9.10036 115.926 10.7401C116.705 9.10036 117.853 7.91158 119.329 7.09173C120.846 6.31288 122.444 5.90295 124.166 5.90295C129.905 5.90295 132.774 8.77243 132.774 14.5524V31.2773H129.618V14.6753C129.618 12.6257 129.167 11.068 128.265 10.0022C127.363 8.93639 125.765 8.4035 123.469 8.4035C122.075 8.4035 120.969 8.64945 120.067 9.14135C119.165 9.63326 118.427 10.2891 117.894 11.109C117.361 11.9288 116.992 12.8717 116.746 13.9375C116.541 15.0033 116.418 16.1101 116.418 17.2579V31.2363H113.262V14.5114C113.262 13.6915 113.18 12.9127 112.975 12.1338C112.77 11.3959 112.483 10.7401 112.073 10.1662C111.663 9.59227 111.089 9.18234 110.393 8.8544C109.696 8.52646 108.835 8.3625 107.81 8.3625C106.457 8.3625 105.309 8.60845 104.326 9.05936C103.342 9.51028 102.522 10.1662 101.907 10.986C101.292 11.8059 100.841 12.7487 100.513 13.8555C100.226 14.9623 100.062 16.1511 100.062 17.4628V31.2363H96.906V6.55884H99.8165V6.64081Z" fill="#231F20"/>
<path d="M141.014 0V3.15641H137.857V0H141.014ZM141.014 6.64077V31.3182H137.857V6.64077H141.014Z" fill="#231F20"/>
<path d="M146.999 10.494C147.532 9.4282 148.27 8.56736 149.172 7.91148C150.074 7.2556 151.18 6.76369 152.41 6.43575C153.64 6.10781 155.034 5.94385 156.55 5.94385C157.698 5.94385 158.846 6.06682 159.953 6.27178C161.1 6.47674 162.125 6.88667 163.027 7.46056C163.929 8.03445 164.667 8.8543 165.241 9.87911C165.815 10.9039 166.102 12.2567 166.102 13.9374V31.4001H162.945C162.945 29.1046 162.945 27.3009 162.945 26.645L163.109 27.0959C162.535 27.8748 162.002 28.6127 161.428 29.2276C160.855 29.8424 160.24 30.3753 159.502 30.7853C158.805 31.1952 157.985 31.5231 157.083 31.7281C156.181 31.933 155.116 32.056 153.886 32.056C152.697 32.056 151.59 31.9331 150.565 31.6461C149.541 31.3592 148.639 30.9492 147.86 30.3344C147.081 29.7605 146.507 28.9816 146.056 28.0798C145.605 27.1779 145.4 26.1121 145.4 24.8414C145.4 23.1197 145.81 21.7669 146.589 20.7831C147.368 19.7993 148.393 19.0614 149.705 18.5695C150.975 18.0776 152.451 17.7087 154.05 17.5037C155.648 17.2987 157.288 17.0938 158.969 16.8888C159.625 16.8068 160.199 16.7249 160.691 16.6429C161.182 16.5609 161.592 16.3969 161.92 16.151C162.248 15.905 162.494 15.5771 162.699 15.1671C162.863 14.7572 162.986 14.2243 162.986 13.5274C162.986 12.5026 162.822 11.6828 162.453 11.0269C162.084 10.371 161.633 9.83812 160.978 9.46919C160.363 9.10026 159.625 8.81331 158.805 8.69033C157.985 8.52636 157.083 8.48537 156.181 8.48537C154.173 8.48537 152.533 8.9363 151.262 9.83813C149.992 10.74 149.336 12.2157 149.254 14.2243H146.097C146.138 12.7896 146.466 11.5188 146.999 10.494ZM162.863 17.8317C162.658 18.2006 162.289 18.4465 161.756 18.6105C161.223 18.7745 160.732 18.8975 160.281 18.9384C158.969 19.1434 157.657 19.3484 156.263 19.5533C154.87 19.7173 153.64 20.0042 152.492 20.3322C151.344 20.7011 150.442 21.193 149.705 21.8489C148.967 22.5048 148.598 23.4476 148.598 24.6364C148.598 25.4152 148.762 26.0711 149.049 26.686C149.377 27.2599 149.787 27.7928 150.278 28.2027C150.811 28.6537 151.385 28.9406 152.082 29.1866C152.779 29.3915 153.476 29.5145 154.173 29.5145C155.321 29.5145 156.468 29.3505 157.534 28.9816C158.6 28.6127 159.543 28.1208 160.322 27.4649C161.1 26.809 161.756 25.9892 162.207 25.0053C162.658 24.0625 162.904 22.9557 162.904 21.7669V17.8317H162.863Z" fill="#231F20"/>
<path d="M174.3 0V31.3182H171.144V0H174.3Z" fill="#231F20"/>
</svg>
