<svg width="503" height="100" viewBox="0 0 503 100" fill="none" xmlns="http://www.w3.org/2000/svg">
<g clip-path="url(#clip0_265_17097)">
<path d="M78.9531 49.7037L81.6397 55.2131L92.2821 57.5363L92.2648 41.8603L83.7357 39.8313L78.9531 49.7037Z" fill="white"/>
<path d="M10.1666 15.624L0 17.9191V2.85095L8.07484 1.0426L14.5641 6.11507L10.1666 15.624Z" fill="white"/>
<path d="M92.2385 81.5726L75.8682 85.57L81.0856 95.9528L92.2839 98.2695L92.2385 81.5726Z" fill="white"/>
<path d="M51.6111 80.1146L51.6349 92.1977L42.2124 99.7339L42.1367 82.2907L51.6111 80.1146Z" fill="white"/>
<path d="M35.2754 5.12435L51.5787 1.15723L51.6046 17.8023L35.2754 5.12435Z" fill="white"/>
<path d="M12.9786 48.5053C12.9877 50.1184 12.6274 51.7123 11.9252 53.1646C10.8818 55.3323 9.13494 57.0826 6.96935 58.1302C4.80376 59.1778 2.34715 59.461 0 58.9336L0 38.1678C0 38.1678 9.13476 45.3796 12.9786 48.5053Z" fill="white"/>
<path d="M42.4208 39.0958L51.588 41.1508L51.6053 57.9797C49.2253 58.5454 46.7235 58.2831 44.5126 57.2359C42.3017 56.1886 40.5138 54.4191 39.4439 52.2192C38.3739 50.0192 38.0857 47.5203 38.6269 45.1345C39.1681 42.7488 40.5063 40.6188 42.4208 39.0958Z" fill="white"/>
<path d="M123.6 0H125.763V100H123.6V0Z" fill="white"/>
<path d="M168.971 27.1036V25.557C168.969 24.3766 168.5 23.2451 167.665 22.4103C166.831 21.5755 165.699 21.1054 164.519 21.1031H158.004V38.7713H160.21V31.5552H164.519C165.699 31.5535 166.831 31.084 167.665 30.2495C168.5 29.415 168.969 28.2837 168.971 27.1036ZM160.21 23.3095H164.519C164.816 23.3049 165.111 23.3598 165.386 23.4709C165.661 23.5821 165.911 23.7474 166.122 23.9569C166.332 24.1664 166.498 24.4159 166.61 24.6908C166.723 24.9656 166.779 25.2601 166.775 25.557V27.1036C166.779 27.3995 166.723 27.6931 166.611 27.9672C166.5 28.2413 166.335 28.4904 166.126 28.6998C165.916 28.9091 165.667 29.0746 165.393 29.1864C165.119 29.2983 164.826 29.3542 164.53 29.351H160.21V23.3095Z" fill="white"/>
<path d="M179.843 23.3095H184.223V21.1031H173.265V23.3073H177.645V36.5563H173.265V38.7627H184.232V36.5563H179.843V23.3095Z" fill="white"/>
<path d="M193.498 38.7713H195.661C196.872 38.7934 198.043 38.3345 198.916 37.4952C199.789 36.6559 200.294 35.5047 200.321 34.2937V25.557C200.291 24.3492 199.784 23.2024 198.911 22.3676C198.038 21.5329 196.869 21.0782 195.661 21.1031H193.498C192.29 21.0782 191.122 21.5329 190.249 22.3676C189.375 23.2024 188.868 24.3492 188.839 25.557V34.2937C188.865 35.5047 189.37 36.6559 190.243 37.4952C191.117 38.3345 192.287 38.7934 193.498 38.7713ZM191.019 25.557C191.053 24.9315 191.333 24.3447 191.797 23.9239C192.261 23.5032 192.872 23.2824 193.498 23.3095H195.661C195.972 23.2917 196.284 23.336 196.577 23.4398C196.871 23.5436 197.141 23.7047 197.372 23.9139C197.602 24.1231 197.789 24.3761 197.921 24.6582C198.053 24.9403 198.127 25.2458 198.14 25.557V34.2937C198.1 34.9172 197.818 35.5004 197.355 35.9199C196.892 36.3393 196.284 36.5622 195.659 36.5412H193.496C192.872 36.5621 192.264 36.3393 191.801 35.9197C191.338 35.5002 191.057 34.917 191.017 34.2937L191.019 25.557Z" fill="white"/>
<path d="M217.935 38.7713V21.1031H215.728V36.1713L209.773 21.1031H206.193V38.7713H208.4V23.7032L214.363 38.7713H217.935Z" fill="white"/>
<path d="M226.2 30.6013H232.925V28.3971H226.2V23.3095H233.93V21.1031H223.993V38.7713H233.93V36.5563H226.2V30.6013Z" fill="white"/>
<path d="M241.729 30.6013H248.454V28.3971H241.729V23.3095H249.46V21.1031H239.522V38.7713H249.46V36.5563H241.729V30.6013Z" fill="white"/>
<path d="M262.777 31.3822C263.715 31.1285 264.543 30.5709 265.13 29.7966C265.717 29.0224 266.031 28.0753 266.022 27.1036V25.557C266.02 24.3763 265.551 23.2444 264.716 22.4095C263.881 21.5747 262.749 21.1049 261.568 21.1031H255.051V38.7713H257.255V31.5552H260.221L263.493 38.7713H265.918L262.572 31.4406L262.777 31.3822ZM257.255 29.351V23.3095H261.564C261.86 23.306 262.154 23.3618 262.428 23.4735C262.702 23.5852 262.951 23.7506 263.161 23.96C263.37 24.1694 263.536 24.4186 263.647 24.6928C263.759 24.967 263.815 25.2609 263.811 25.557V27.1036C263.815 27.3997 263.759 27.6935 263.647 27.9677C263.536 28.242 263.37 28.4911 263.161 28.7005C262.951 28.9099 262.702 29.0753 262.428 29.1871C262.154 29.2988 261.86 29.3545 261.564 29.351H257.255Z" fill="white"/>
<path d="M283.26 38.7713H285.324C286.508 38.7668 287.642 38.2928 288.477 37.4534C289.312 36.614 289.779 35.4777 289.778 34.2937V33.0608H287.571V34.2937C287.571 34.8896 287.334 35.4609 286.912 35.8823C286.491 36.3036 285.92 36.5406 285.324 36.5412H283.26C282.665 36.54 282.094 36.3029 281.672 35.8817C281.251 35.4604 281.014 34.8894 281.013 34.2937V25.557C281.014 24.9613 281.251 24.3903 281.672 23.969C282.094 23.5478 282.665 23.3107 283.26 23.3095H285.324C285.62 23.306 285.914 23.3618 286.188 23.4735C286.462 23.5852 286.711 23.7506 286.921 23.96C287.13 24.1694 287.296 24.4186 287.407 24.6928C287.519 24.9671 287.575 25.2609 287.571 25.557V26.7878H289.778V25.557C289.776 24.3744 289.305 23.2409 288.468 22.4057C287.63 21.5705 286.496 21.102 285.313 21.1032H283.25C282.069 21.1049 280.937 21.5747 280.103 22.4097C279.268 23.2446 278.799 24.3765 278.798 25.557V34.2937C278.797 34.8808 278.911 35.4623 279.135 36.0051C279.359 36.5479 279.687 37.0412 280.101 37.4571C280.516 37.8729 281.008 38.203 281.55 38.4285C282.092 38.654 282.673 38.7705 283.26 38.7713Z" fill="white"/>
<path d="M297.588 30.6013H304.313V28.3971H297.588V23.3095H305.319V21.1031H295.382V38.7713H305.319V36.5563H297.588V30.6013Z" fill="white"/>
<path d="M320.448 36.1713L314.491 21.1031H310.911V38.7713H313.118V23.7032L319.075 38.7713H322.655V21.1031H320.448V36.1713Z" fill="white"/>
<path d="M327.359 23.3095H331.74V38.7735H333.946V23.3095H338.326V21.1031H327.359V23.3095Z" fill="white"/>
<path d="M351.472 38.7713H353.896L350.55 31.4406L350.766 31.3822C351.705 31.1289 352.532 30.5713 353.119 29.797C353.707 29.0227 354.02 28.0753 354.011 27.1036V25.557C354.01 24.3761 353.54 23.2439 352.705 22.4089C351.87 21.5739 350.738 21.1043 349.557 21.1031H343.042V38.7713H345.248V31.5552H348.21L351.472 38.7713ZM345.231 23.3095H349.557C349.853 23.306 350.147 23.3618 350.421 23.4735C350.696 23.5852 350.945 23.7506 351.154 23.96C351.364 24.1694 351.529 24.4186 351.641 24.6928C351.752 24.967 351.808 25.2609 351.805 25.557V27.1036C351.808 27.3997 351.752 27.6935 351.641 27.9677C351.529 28.242 351.364 28.4911 351.154 28.7005C350.945 28.9099 350.696 29.0753 350.421 29.1871C350.147 29.2988 349.853 29.3545 349.557 29.351H345.231V23.3095Z" fill="white"/>
<path d="M369.503 36.5563H361.772V30.6013H368.497V28.3971H361.772V23.3095H369.503V21.1031H359.565V38.7713H369.503V36.5563Z" fill="white"/>
<path d="M384.759 23.3095H391.975V21.1031H382.553V38.7713H384.759V31.3649H391.032V29.1715H384.759V23.3095Z" fill="white"/>
<path d="M401.724 38.7714H403.887C405.098 38.7934 406.269 38.3346 407.142 37.4954C408.016 36.6562 408.522 35.5049 408.548 34.2938V25.557C408.519 24.3489 408.012 23.2017 407.138 22.3669C406.264 21.5321 405.095 21.0776 403.887 21.1032H401.724C400.516 21.0782 399.347 21.5329 398.474 22.3677C397.601 23.2025 397.094 24.3493 397.064 25.557V34.2938C397.091 35.5047 397.596 36.656 398.469 37.4952C399.342 38.3345 400.513 38.7934 401.724 38.7714ZM399.245 25.557C399.279 24.9315 399.558 24.3447 400.023 23.924C400.487 23.5032 401.098 23.2824 401.724 23.3096H403.887C404.198 23.2915 404.51 23.3356 404.803 23.4392C405.097 23.5428 405.368 23.7039 405.599 23.9131C405.83 24.1224 406.016 24.3755 406.149 24.6577C406.281 24.9399 406.355 25.2457 406.368 25.557V34.2938C406.327 34.9173 406.046 35.5005 405.583 35.9199C405.119 36.3394 404.511 36.5622 403.887 36.5412H401.724C401.1 36.5622 400.492 36.3393 400.029 35.9198C399.566 35.5003 399.285 34.9171 399.245 34.2938V25.557Z" fill="white"/>
<path d="M422.86 38.7713H425.285L421.938 31.4406L422.155 31.3822C423.093 31.1292 423.921 30.5717 424.508 29.7973C425.095 29.0229 425.409 28.0754 425.399 27.1036V25.557C425.397 24.3751 424.927 23.2423 424.09 22.4072C423.254 21.5722 422.121 21.1031 420.939 21.1031H414.426V38.7713H416.63V31.5552H419.591L422.86 38.7713ZM416.626 23.3095H420.939C421.235 23.306 421.529 23.3618 421.803 23.4735C422.077 23.5852 422.326 23.7506 422.536 23.96C422.745 24.1694 422.911 24.4186 423.022 24.6928C423.134 24.967 423.19 25.2609 423.186 25.557V27.1036C423.19 27.3997 423.134 27.6935 423.022 27.9677C422.911 28.242 422.745 28.4911 422.536 28.7005C422.326 28.9099 422.077 29.0753 421.803 29.1871C421.529 29.2988 421.235 29.3545 420.939 29.351H416.63L416.626 23.3095Z" fill="white"/>
<path d="M166.342 78.2479H168.549V72.5395L164.095 60.5797H161.787L157.333 72.5395V78.2479H159.539V74.0731H166.342V78.2479ZM159.935 71.8668L162.78 64.2786H163.098L165.944 71.8668H159.935Z" fill="white"/>
<path d="M185.095 65.0335C185.093 63.8528 184.623 62.721 183.788 61.8861C182.953 61.0512 181.822 60.5814 180.641 60.5797H174.13V78.2479H176.336V71.0318H179.295L182.566 78.2479H184.991L181.644 70.915L181.861 70.8566C182.799 70.6036 183.627 70.0461 184.214 69.2717C184.802 68.4973 185.115 67.5498 185.105 66.578L185.095 65.0335ZM182.888 66.578C182.892 66.8742 182.836 67.1681 182.724 67.4425C182.613 67.7168 182.447 67.9661 182.238 68.1757C182.029 68.3852 181.779 68.5509 181.505 68.6628C181.231 68.7748 180.937 68.8308 180.641 68.8276H176.334V62.7839H180.641C180.937 62.7807 181.231 62.8367 181.505 62.9487C181.779 63.0606 182.029 63.2263 182.238 63.4358C182.447 63.6454 182.613 63.8947 182.724 64.169C182.836 64.4434 182.892 64.7373 182.888 65.0335V66.578Z" fill="white"/>
<path d="M193.695 78.2479H195.901V62.7839H200.281V60.5797H189.314V62.7839H193.695V78.2479Z" fill="white"/>
<path d="M210.861 62.7839H215.241V60.5797H204.274V62.7839H208.657V76.0415H204.274V78.2479H215.243V76.0415H210.861V62.7839Z" fill="white"/>
<path d="M228.57 68.6459H222.297V62.7839H229.513V60.5797H220.091V78.2479H222.297V70.8501H228.57V68.6459Z" fill="white"/>
<path d="M240.43 62.7839H244.811V60.5797H233.844V62.7839H238.224V76.0415H233.844V78.2479H244.811V76.0415H240.43V62.7839Z" fill="white"/>
<path d="M255.944 60.5797H253.883C252.702 60.5814 251.57 61.0512 250.735 61.8861C249.9 62.721 249.43 63.8528 249.429 65.0335V73.7616C249.427 74.9458 249.895 76.0823 250.73 76.922C251.565 77.7618 252.698 78.2363 253.883 78.2414H255.944C257.128 78.2363 258.262 77.7618 259.097 76.922C259.932 76.0823 260.4 74.9458 260.398 73.7616V72.5308H258.191V73.7616C258.191 74.3575 257.954 74.9288 257.533 75.3502C257.111 75.7715 256.54 76.0085 255.944 76.0091H253.883C253.287 76.0085 252.715 75.7715 252.294 75.3502C251.873 74.9288 251.636 74.3575 251.635 73.7616V65.0335C251.635 64.4373 251.872 63.8654 252.293 63.4436C252.715 63.0217 253.286 62.7845 253.883 62.7839H255.944C256.24 62.7807 256.534 62.8367 256.808 62.9487C257.083 63.0606 257.332 63.2263 257.541 63.4358C257.75 63.6454 257.916 63.8947 258.027 64.169C258.139 64.4434 258.195 64.7373 258.191 65.0335V66.2643H260.398V65.0335C260.396 63.8528 259.926 62.721 259.091 61.8861C258.257 61.0512 257.125 60.5814 255.944 60.5797Z" fill="white"/>
<path d="M269.2 76.0415H264.817V78.2479H275.795V76.0415H271.415V62.7839H275.795V60.5797H264.826V62.7839H269.208L269.2 76.0415Z" fill="white"/>
<path d="M284.767 60.5797L280.313 72.5395V78.2479H282.52V74.0731H289.334V78.2479H291.54V72.5395L287.086 60.5797H284.767ZM282.926 71.8668L285.771 64.2786H286.08L288.927 71.8668H282.926Z" fill="white"/>
<path d="M299.315 60.5797H297.108V78.2479H306.728V76.0415H299.306L299.315 60.5797Z" fill="white"/>
<path d="M322.698 76.0415H318.315V78.2479H329.284V76.0415H324.897V62.7839H329.278V60.5797H318.309V62.7839H322.691L322.698 76.0415Z" fill="white"/>
<path d="M334.145 60.5797V78.2479H336.351V63.1798L342.308 78.2479H345.879V60.5797H343.673V75.6478L337.716 60.5797H334.145Z" fill="white"/>
<path d="M354.964 78.2479H357.171V62.7839H361.551V60.5797H350.584V62.7839H354.964V78.2479Z" fill="white"/>
<path d="M376.202 76.0415H368.471V70.0844H375.196V67.8737H368.471V62.7839H376.202V60.5797H366.265V78.2479H376.202V76.0415Z" fill="white"/>
<path d="M384 60.5797H381.787V78.2479H391.415V76.0415H383.993L384 60.5797Z" fill="white"/>
<path d="M398.544 60.5797H396.338V78.2479H405.966V76.0415H398.544V60.5797Z" fill="white"/>
<path d="M414.553 76.0415H410.173V78.2479H421.14V76.0415H416.759V62.7839H421.14V60.5797H410.173V62.7839H414.553V76.0415Z" fill="white"/>
<path d="M432.269 60.5797H430.208C429.027 60.5814 427.895 61.0512 427.06 61.8861C426.225 62.721 425.756 63.8528 425.754 65.0335V73.7616C425.752 74.9458 426.22 76.0823 427.055 76.922C427.89 77.7618 429.024 78.2363 430.208 78.2414H432.269C433.454 78.238 434.59 77.7643 435.426 76.9243C436.262 76.0844 436.731 74.9469 436.729 73.7616V68.9033H430.651V71.1097H434.517V73.7616C434.516 74.3575 434.279 74.9288 433.858 75.3502C433.436 75.7715 432.865 76.0085 432.269 76.0091H430.208C429.612 76.0085 429.041 75.7715 428.619 75.3502C428.198 74.9288 427.961 74.3575 427.96 73.7616V65.0335C427.96 64.4373 428.197 63.8654 428.618 63.4436C429.04 63.0217 429.611 62.7845 430.208 62.7839H432.269C432.565 62.7807 432.859 62.8367 433.133 62.9487C433.408 63.0606 433.657 63.2263 433.866 63.4358C434.076 63.6454 434.241 63.8947 434.353 64.169C434.464 64.4434 434.52 64.7373 434.517 65.0335V66.2643H436.723V65.0335C436.721 63.8528 436.251 62.721 435.417 61.8861C434.582 61.0512 433.45 60.5814 432.269 60.5797Z" fill="white"/>
<path d="M452.494 76.0415H444.763V70.0844H451.488V67.8737H444.763V62.7839H452.494V60.5797H442.557V78.2479H452.494V76.0415Z" fill="white"/>
<path d="M458.088 60.5797V78.2479H460.294V63.1798L466.251 78.2479H469.825V60.5797H467.618V75.6478L461.661 60.5797H458.088Z" fill="white"/>
<path d="M482.235 60.5797H480.171C478.991 60.582 477.86 61.052 477.025 61.8869C476.191 62.7217 475.721 63.8532 475.72 65.0335V73.7616C475.717 74.9456 476.185 76.0821 477.019 76.9219C477.854 77.7617 478.987 78.2363 480.171 78.2414H482.235C483.421 78.2385 484.557 77.7651 485.393 76.9251C486.23 76.0851 486.699 74.9473 486.697 73.7616V72.5308H484.491V73.7616C484.491 74.3575 484.254 74.9288 483.832 75.3502C483.411 75.7715 482.84 76.0085 482.244 76.0091H480.18C479.585 76.0079 479.014 75.7707 478.593 75.3494C478.172 74.9281 477.935 74.3571 477.935 73.7616V65.0335C477.935 64.4376 478.171 63.8661 478.592 63.4443C479.013 63.0226 479.584 62.7851 480.18 62.7839H482.244C482.54 62.7807 482.834 62.8367 483.108 62.9487C483.382 63.0606 483.631 63.2263 483.841 63.4358C484.05 63.6454 484.215 63.8947 484.327 64.169C484.439 64.4434 484.495 64.7373 484.491 65.0335V66.2643H486.697V65.0335C486.696 63.8513 486.225 62.7182 485.388 61.883C484.551 61.0479 483.417 60.5791 482.235 60.5797Z" fill="white"/>
<path d="M502.23 76.0415H494.499V70.0844H501.224V67.8737H494.499V62.7839H502.23V60.5797H492.293V78.2479H502.23V76.0415Z" fill="white"/>
</g>
<defs>
<clipPath id="clip0_265_17097">
<rect width="502.23" height="100" fill="white"/>
</clipPath>
</defs>
</svg>
