<svg fill="none" height="18" viewBox="0 0 19 18" width="19" xmlns="http://www.w3.org/2000/svg"><g fill="#616061"><path d="m9.6752 2.37377c.27956 0 .5062-.22668.5062-.50625v-.7425c0-.279558-.22664-.506246-.5062-.506246-.27957 0-.50625.226688-.50625.506246v.7425c0 .27957.22668.50625.50625.50625z"/><path d="m2.67648 8.35986h-.7425c-.27956 0-.50625.22669-.50625.50625 0 .27957.22669.50625.50625.50625h.74194c.27956 0 .50625-.22668.50625-.50625 0-.27956-.22612-.50625-.50569-.50625z"/><path d="m17.4162 8.35986h-.742c-.2795 0-.5062.22669-.5062.50625 0 .27957.2267.50625.5062.50625h.742c.2795 0 .5062-.22668.5062-.50625 0-.27956-.2267-.50625-.5062-.50625z"/><path d="m14.7916 3.03412-.5259.52481c-.198.198-.198.51806 0 .71606.099.099.2284.1485.3583.1485s.2593-.0495.3578-.14794l.5259-.52481c.198-.198.198-.51806 0-.71606s-.5198-.198-.7161-.00056z"/><path d="m5.08455 4.27506c.198-.198.198-.51806 0-.71606l-.52594-.52481c-.19687-.19744-.51806-.19744-.7155 0-.19743.19743-.198.51806 0 .71606l.52594.52481c.09844.09844.22781.14794.35775.14794s.25875-.04894.35775-.14794z"/><path d="m9.11265 4.31496c-2.025.23794-3.69787 1.83319-4.01793 3.8475-.28969 1.82363.48487 3.48754 1.79775 4.47244.36731.2756.5985.6902.612 1.1469h4.34083c.0118-.4539.2396-.8685.6052-1.1413 1.1323-.846 1.8658-2.1954 1.8658-3.71754 0-2.74893-2.3889-4.93931-5.20365-4.608z"/><path d="m7.50952 14.6273v.0821c0 .6019.24188 1.1419.63563 1.53.38812.3938.93375.6357 1.53.6357 1.19815 0 2.16565-.9675 2.16565-2.1657v-.0821z"/></g></svg>