<svg fill="none" height="36" viewBox="0 0 265 36" width="265" xmlns="http://www.w3.org/2000/svg" xmlns:xlink="http://www.w3.org/1999/xlink"><clipPath id="a"><path d="m.764893 5h102.47v26h-102.47z"/></clipPath><clipPath id="b"><path d="m.764893 5h102.47v26h-102.47z"/></clipPath><clipPath id="c"><path d="m.764893 5.00159h102.47v25.9968h-102.47z"/></clipPath><mask id="d" height="26" maskUnits="userSpaceOnUse" width="104" x="0" y="5"><path d="m.764893 30.9478h102.468107v-25.94621h-102.468107z" fill="#fff"/></mask><mask id="e" height="26" maskUnits="userSpaceOnUse" width="104" x="0" y="5"><path d="m.764893 30.9478h102.468107v-25.94621h-102.468107z" fill="#fff"/></mask><mask id="f" height="26" maskUnits="userSpaceOnUse" width="104" x="0" y="5"><path d="m.764893 30.9478h102.468107v-25.94621h-102.468107z" fill="#fff"/></mask><mask id="g" height="26" maskUnits="userSpaceOnUse" width="104" x="0" y="5"><path d="m.764893 30.9478h102.468107v-25.94621h-102.468107z" fill="#fff"/></mask><mask id="h" height="26" maskUnits="userSpaceOnUse" width="104" x="0" y="5"><path d="m.764893 30.9478h102.468107v-25.94621h-102.468107z" fill="#fff"/></mask><mask id="i" height="26" maskUnits="userSpaceOnUse" width="104" x="0" y="5"><path d="m.764893 30.9478h102.468107v-25.94621h-102.468107z" fill="#fff"/></mask><mask id="j" height="26" maskUnits="userSpaceOnUse" width="104" x="0" y="5"><path d="m.764893 30.9478h102.468107v-25.94621h-102.468107z" fill="#fff"/></mask><mask id="k" height="26" maskUnits="userSpaceOnUse" width="104" x="0" y="5"><path d="m.764893 30.9478h102.468107v-25.94621h-102.468107z" fill="#fff"/></mask><mask id="l" height="26" maskUnits="userSpaceOnUse" width="104" x="0" y="5"><path d="m.764893 30.9478h102.468107v-25.94621h-102.468107z" fill="#fff"/></mask><mask id="m" height="26" maskUnits="userSpaceOnUse" width="104" x="0" y="5"><path d="m.764893 30.9478h102.468107v-25.94621h-102.468107z" fill="#fff"/></mask><mask id="n" height="26" maskUnits="userSpaceOnUse" width="104" x="0" y="5"><path d="m.764893 30.9478h102.468107v-25.94621h-102.468107z" fill="#fff"/></mask><g clip-path="url(#a)"><g clip-path="url(#b)"><g clip-path="url(#c)"><path clip-rule="evenodd" d="m33.5391 25.4283 1.2722-2.9679c1.393 1.0295 3.2103 1.5746 5.0275 1.5746 1.3326 0 2.1807-.5147 2.1807-1.3022-.0303-2.1805-8.026-.4845-8.0866-5.9666-.0305-2.7863 2.4532-4.9367 5.9665-4.9367 2.0898 0 4.1796.5152 5.6637 1.6963l-1.1888 3.0315c-1.3655-.8764-3.0516-1.4871-4.6566-1.4871-1.0905 0-1.8173.5147-1.8173 1.1813.0303 2.1504 8.0867.9691 8.1777 6.2089 0 2.847-2.4232 4.8456-5.876 4.8456-2.5438 0-4.8759-.6054-6.663-1.8777z" fill="#000" fill-rule="evenodd"/><path clip-rule="evenodd" d="m82.6617 21.3856c-.6346 1.1206-1.8367 1.8772-3.2167 1.8772-2.0407 0-3.6946-1.6541-3.6946-3.6948s1.6539-3.6951 3.6946-3.6951c1.38 0 2.5821.7565 3.2167 1.8771l3.5369-1.9594c-1.3246-2.363-3.8518-3.9609-6.7536-3.9609-4.2736 0-7.7382 3.4643-7.7382 7.7383 0 4.2737 3.4646 7.7382 7.7382 7.7382 2.9018 0 5.429-1.5981 6.7536-3.9612z" fill="#000" fill-rule="evenodd"/><g mask="url(#d)"><path clip-rule="evenodd" d="m47.8611 27.0033h4.4221v-21.61499h-4.4221z" fill="#000" fill-rule="evenodd"/></g><g mask="url(#e)"><path clip-rule="evenodd" d="m87.9192 5.38831v21.61499h4.4221v-6.4759l5.2399 6.4759h5.6518l-6.6635-7.6932 6.1785-7.1784h-5.4093l-4.9974 5.9677v-12.71109z" fill="#000" fill-rule="evenodd"/></g><g mask="url(#f)"><path clip-rule="evenodd" d="m65.3936 12.1325v1.7566c-.7268-1.2115-2.5139-2.0594-4.3915-2.0594-3.8768 0-6.9357 3.4224-6.9357 7.723 0 4.3009 3.0589 7.7535 6.9357 7.7535 1.8776 0 3.6647-.8481 4.3915-2.0597v1.7567h4.422v-14.8707zm0 9.2829c-.636 1.0602-1.9686 1.8474-3.4527 1.8474-2.0407 0-3.695-1.6541-3.695-3.6948 0-2.0406 1.6543-3.695 3.695-3.695 1.4841 0 2.8167.8177 3.4527 1.908z" fill="#000" fill-rule="evenodd"/></g><g mask="url(#g)"><path clip-rule="evenodd" d="m6.22726 21.3887c0 1.5084-1.22276 2.7311-2.73118 2.7311-1.50843 0-2.731187-1.2227-2.731187-2.7311 0-1.5085 1.222757-2.7312 2.731187-2.7312h2.73118z" fill="#e01e5a" fill-rule="evenodd"/></g><g mask="url(#h)"><path clip-rule="evenodd" d="m7.59277 21.3887c0-1.5085 1.22276-2.7312 2.73123-2.7312 1.5084 0 2.7311 1.2227 2.7311 2.7312v6.8279c0 1.5084-1.2227 2.7312-2.7311 2.7312-1.50847 0-2.73123-1.2228-2.73123-2.7312z" fill="#e01e5a" fill-rule="evenodd"/></g><g mask="url(#i)"><path clip-rule="evenodd" d="m10.324 10.464c-1.50847 0-2.73123-1.22281-2.73123-2.73123s1.22276-2.73118 2.73123-2.73118c1.5084 0 2.7311 1.22276 2.7311 2.73118v2.73123z" fill="#36c5f0" fill-rule="evenodd"/></g><g mask="url(#j)"><path clip-rule="evenodd" d="m10.324 11.8296c1.5085 0 2.7312 1.2228 2.7312 2.7312s-1.2227 2.7312-2.7312 2.7312h-6.82792c-1.50843 0-2.731187-1.2228-2.731187-2.7312s1.222757-2.7312 2.731187-2.7312z" fill="#36c5f0" fill-rule="evenodd"/></g><g mask="url(#k)"><path clip-rule="evenodd" d="m21.2488 14.5608c0-1.5084 1.2227-2.7312 2.7312-2.7312 1.5084 0 2.7311 1.2228 2.7311 2.7312s-1.2227 2.7312-2.7311 2.7312h-2.7312z" fill="#2eb67d" fill-rule="evenodd"/></g><g mask="url(#l)"><path clip-rule="evenodd" d="m19.8833 14.5607c0 1.5085-1.2228 2.7312-2.7312 2.7312s-2.7312-1.2227-2.7312-2.7312v-6.82793c0-1.50842 1.2228-2.73118 2.7312-2.73118s2.7312 1.22276 2.7312 2.73118z" fill="#2eb67d" fill-rule="evenodd"/></g><g mask="url(#m)"><path clip-rule="evenodd" d="m17.1521 25.4855c1.5084 0 2.7312 1.2227 2.7312 2.7312 0 1.5084-1.2228 2.7311-2.7312 2.7311s-2.7312-1.2227-2.7312-2.7311v-2.7312z" fill="#ecb22e" fill-rule="evenodd"/></g><g mask="url(#n)"><path clip-rule="evenodd" d="m17.1521 24.1198c-1.5084 0-2.7312-1.2227-2.7312-2.7311 0-1.5085 1.2228-2.7312 2.7312-2.7312h6.8279c1.5085 0 2.7312 1.2227 2.7312 2.7312 0 1.5084-1.2227 2.7311-2.7312 2.7311z" fill="#ecb22e" fill-rule="evenodd"/></g></g></g></g><path d="m112.664 15.888h6.528v-6.528h4.096v6.528h6.496v4.096h-6.496v6.528h-4.096v-6.528h-6.528z" fill="#000"/><rect fill="#6f6" height="36" rx="4" width="36" x="139.235"/><g fill="#000"><path d="m150.235 7.52057v6.63173c0 .278.233.5163.505.5163h6.491c.272 0 .505.2382.505.5162v6.6317c0 .2781.233.5163.505.5163h6.489c.272 0 .505-.2382.505-.5163v-14.29593c0-.27797-.233-.51624-.505-.51624h-13.99c-.311-.03971-.505.19856-.505.51624z"/><path d="m157.226 30h-6.486c-.272 0-.505-.2383-.505-.5164v-6.6344c0-.2781.233-.5164.505-.5164h6.486c.272 0 .505.2383.505.5164v6.6344c.039.2781-.194.5164-.505.5164z"/><path d="m187.077 32.7637h-3.296v-22.0313h3.296v1.5528c1.299-1.2989 2.774-1.9483 4.424-1.9483 1.963 0 3.579.7227 4.849 2.168 1.289 1.4355 1.933 3.2471 1.933 5.4346 0 2.1386-.639 3.9209-1.919 5.3466-1.269 1.416-2.871 2.1241-4.804 2.1241-1.67 0-3.165-.669-4.483-2.0069zm7.837-14.8096c0-1.3672-.371-2.4805-1.113-3.3398-.752-.8692-1.699-1.3038-2.842-1.3038-1.211 0-2.192.42-2.944 1.2598-.752.8399-1.128 1.9434-1.128 3.3106 0 1.3379.376 2.4414 1.128 3.3105.742.8496 1.718 1.2744 2.929 1.2744 1.143 0 2.085-.4297 2.827-1.289.762-.8594 1.143-1.9336 1.143-3.2227zm5.655-7.2217h3.296v1.2744c.606-.6347 1.143-1.0693 1.612-1.3037.478-.2441 1.045-.3662 1.699-.3662.869 0 1.777.2832 2.725.8496l-1.509 3.0176c-.625-.4492-1.236-.6738-1.831-.6738-1.797 0-2.696 1.3574-2.696 4.0722v7.3975h-3.296zm9.084 7.0313c0-2.0606.737-3.8135 2.212-5.2588 1.474-1.4453 3.271-2.168 5.39-2.168 2.129 0 3.936.7276 5.42 2.1826 1.465 1.4551 2.197 3.2422 2.197 5.3614 0 2.1386-.737 3.9306-2.211 5.3759-1.485 1.4356-3.306 2.1534-5.464 2.1534-2.139 0-3.931-.7325-5.376-2.1973-1.446-1.4453-2.168-3.2617-2.168-5.4492zm3.369.0586c0 1.4257.381 2.5537 1.142 3.3838.782.8398 1.812 1.2597 3.091 1.2597 1.289 0 2.32-.415 3.091-1.2451.772-.8301 1.157-1.9385 1.157-3.3252s-.385-2.4951-1.157-3.3252c-.781-.8398-1.811-1.2598-3.091-1.2598-1.26 0-2.28.42-3.061 1.2598-.782.8399-1.172 1.9238-1.172 3.252zm27.145.8203h-10.225c.088 1.1719.469 2.1045 1.143 2.7978.673.6836 1.538 1.0254 2.592 1.0254.821 0 1.499-.1953 2.036-.5859.528-.3906 1.128-1.1133 1.802-2.168l2.783 1.5527c-.429.7325-.883 1.3624-1.362 1.8897-.478.5176-.991.9473-1.538 1.2891-.547.332-1.138.5761-1.772.7324-.635.1562-1.324.2344-2.066.2344-2.129 0-3.838-.6836-5.127-2.0508-1.289-1.377-1.933-3.2032-1.933-5.4785 0-2.2559.625-4.0821 1.875-5.4786 1.259-1.3769 2.929-2.0654 5.009-2.0654 2.1 0 3.76.669 4.981 2.0069 1.211 1.3281 1.816 3.1689 1.816 5.5224zm-3.384-2.6953c-.459-1.7578-1.568-2.6368-3.325-2.6368-.401 0-.777.0635-1.128.1905-.352.1172-.674.2929-.967.5273-.283.2246-.527.4981-.733.8203-.205.3223-.361.6885-.468 1.0987zm5.802-5.2149h3.296v1.3184c.634-.6641 1.176-1.1133 1.626-1.3477.478-.2441 1.079-.3662 1.801-.3662 1.612 0 2.886.7031 3.824 2.1094 1.035-1.4063 2.436-2.1094 4.204-2.1094 3.213 0 4.819 1.9483 4.819 5.8447v8.8184h-3.311v-7.9248c0-1.3672-.166-2.334-.498-2.9004-.341-.5762-.903-.8643-1.684-.8643-.908 0-1.572.3418-1.992 1.0254-.41.6836-.616 1.7823-.616 3.2959v7.3682h-3.31v-7.8809c0-2.539-.733-3.8086-2.197-3.8086-.928 0-1.607.3467-2.036 1.0401-.42.6933-.63 1.7871-.63 3.2812v7.3682h-3.296z"/></g></svg>