<svg width="11" height="16" viewBox="0 0 11 16" fill="none" xmlns="http://www.w3.org/2000/svg">
    <path d="M0 0.362138V4.97552C0 5.1689 0.163353 5.33465 0.353932 5.33465H4.90068C5.09126 5.33465 5.25461 5.5004 5.25461 5.69378V10.3071C5.25461 10.5006 5.41796 10.6663 5.60854 10.6663H10.1542C10.3448 10.6663 10.5081 10.5006 10.5081 10.3071V0.362138C10.5081 0.168762 10.3448 0.0030122 10.1542 0.0030122H0.353932C0.136128 -0.0246129 0 0.141137 0 0.362138Z" fill="#7DFA85"/>
    <path d="M4.89741 16H0.353693C0.163274 16 0 15.8342 0 15.6408V11.0256C0 10.8321 0.163274 10.6663 0.353693 10.6663H4.89741C5.08783 10.6663 5.25111 10.8321 5.25111 11.0256V15.6408C5.27833 15.8342 5.11506 16 4.89741 16Z" fill="#7DFA85"/>
</svg>
