<svg width="14" height="20" viewBox="0 0 14 20" fill="none" xmlns="http://www.w3.org/2000/svg">
<path d="M0 0.452688V6.21963C0 6.46135 0.207277 6.66855 0.4491 6.66855H6.21831C6.46013 6.66855 6.66741 6.87574 6.66741 7.11747V12.8844C6.66741 13.1261 6.87468 13.3333 7.1165 13.3333H12.8842C13.1261 13.3333 13.3333 13.1261 13.3333 12.8844V0.452688C13.3333 0.21096 13.1261 0.00376538 12.8842 0.00376538H0.4491C0.172731 -0.0307672 0 0.176428 0 0.452688Z" fill="white" fill-opacity="0.9"/>
<path d="M6.21411 20.0007H0.448797C0.207137 20.0007 0 19.7935 0 19.5516V13.7824C0 13.5406 0.207137 13.3333 0.448797 13.3333H6.21411C6.45577 13.3333 6.6629 13.5406 6.6629 13.7824V19.5516C6.69743 19.7935 6.49029 20.0007 6.21411 20.0007Z" fill="white" fill-opacity="0.9"/>
</svg>
